<?xml version="1.0" standalone="no"?>
<!DOCTYPE svg PUBLIC "-//W3C//DTD SVG 1.1//EN" "http://www.w3.org/Graphics/SVG/1.1/DTD/svg11.dtd">
<svg width="100%" height="100%" viewBox="0 0 1000 700" version="1.1" xmlns="http://www.w3.org/2000/svg" xmlns:xlink="http://www.w3.org/1999/xlink" xml:space="preserve" style="fill-rule:evenodd;clip-rule:evenodd;stroke-linejoin:round;stroke-miterlimit:1.41421;">
    <g id="Logo" transform="matrix(1,0,0,1,-249.899,155.129)">
        <g id="Text" transform="matrix(1,0,0,1,0,-140)">
            <g>
                <path d="M385.892,436L385.892,265.68C385.892,265.68 438.596,326.4 449.828,338.544C450.61,339.39 452.502,339.39 453.284,338.544C464.516,326.4 517.22,265.68 517.22,265.68L517.22,436L530.18,436C530.18,436 530.66,269.107 530.18,235.44C530.165,234.367 528.026,233.21 527.3,234C514.244,248.208 451.844,320.688 451.844,320.688C451.844,320.688 388.964,248.208 375.812,234C375.083,233.212 372.947,234.367 372.932,235.44C372.452,269.107 372.932,436 372.932,436L385.892,436Z" style="fill:black;fill-rule:nonzero;"/>
                <rect x="582.02" y="234" width="12.96" height="202" style="fill:black;fill-rule:nonzero;"/>
                <path d="M646.82,433.253C659.522,435.122 671.25,435.99 682.071,436C777.977,436.087 802.628,372.008 802.628,336.293C802.628,298.235 780.408,233.962 681.976,234C670.912,234.004 658.886,234.855 645.82,236.688L646.82,433.253ZM659.068,247.632C748.06,235.824 788.228,284.165 788.228,336.293C788.228,397.349 733.22,432.677 660.068,423.461L659.068,247.632Z" style="fill:black;fill-rule:nonzero;"/>
                <g transform="matrix(1,0,0,1,-143,0)">
                    <path d="M1262.56,247.248C1251.91,240.048 1233.48,234 1216.48,234C1179.62,234 1164.07,259.344 1164.07,281.52C1164.07,308.592 1183.94,319.589 1213.32,337.157C1241.25,353.861 1257.38,363.424 1257.38,388.48C1257.38,404.32 1241.54,424.768 1213.6,424.768C1192.58,424.768 1178.18,416.704 1166.95,406.912L1159.75,417.28C1170.69,427.072 1184.8,435.712 1214.18,436C1244.42,436.288 1269.19,420.736 1270.05,386.752C1270.92,360.256 1251.33,342.629 1219.94,325.637C1200.36,314.981 1177.32,303.12 1177.32,280.656C1177.32,261.072 1192,245.232 1216.48,245.232C1233.48,245.232 1245,250.128 1257.09,257.328L1262.56,247.248Z" style="fill:black;fill-rule:nonzero;"/>
                </g>
            </g>
        </g>
        <g id="Finger" transform="matrix(1,0,0,1,0,450)">
            <g transform="matrix(1,0,0,1,0,-450)">
                <g id="Finger1">
                    <path d="M853.001,161.921L853,161.921L852.96,296L840,296L840.02,161.761L840,161.761C840,152.675 841.784,143.366 845.308,134.997C848.671,127.011 853.656,119.665 859.78,113.54C865.904,107.416 873.238,102.404 881.236,99.069C889.915,95.45 898.829,93.858 907.546,94C942.904,94.576 975.021,123.682 975,161.761L974.98,161.761L975,296L962.04,296L962.006,161.761L962,161.761L962,161.761C962,131.681 937.579,107.261 907.5,107.261C877.421,107.261 853,131.681 853,161.761L853.001,161.921Z" style="fill:black;"/>
                </g>
            </g>
            <g id="Nail" transform="matrix(1,0,0,1,0,-450)">
                <path d="M866,199L866,162L866.001,161.732C866.145,138.951 884.685,120.5 907.5,120.5C930.315,120.5 948.855,138.951 948.999,161.732L949,162L949,199L866,199ZM879,186L936,186L936,162L935.999,161.816C935.9,146.171 923.168,133.5 907.5,133.5C891.77,133.5 879,146.27 879,162L879,186Z" style="fill:black;"/>
            </g>
        </g>
    </g>
</svg>
